<?xml version="1.0" encoding="iso-8859-1"?>
<!-- Generator: Adobe Illustrator 18.0.0, SVG Export Plug-In . SVG Version: 6.00 Build 0)  -->
<!DOCTYPE svg PUBLIC "-//W3C//DTD SVG 1.1//EN" "http://www.w3.org/Graphics/SVG/1.1/DTD/svg11.dtd">
<svg xmlns="http://www.w3.org/2000/svg" xmlns:xlink="http://www.w3.org/1999/xlink" version="1.1" id="Capa_1" x="0px" y="0px" viewBox="0 0 344.484 344.484" style="enable-background:new 0 0 344.484 344.484;" xml:space="preserve" width="512px" height="512px">
<g id="Puerta_sala">
	<rect x="140.957" y="138.831" width="13.047" height="66.824" fill="#02070a"/>
	<path d="M82.521,167.044c15.557,0,28.213-12.656,28.213-28.214c0-15.557-12.656-28.213-28.213-28.213s-28.214,12.656-28.214,28.213   C54.308,154.388,66.964,167.044,82.521,167.044z M82.521,122.617c8.94,0,16.213,7.273,16.213,16.213   c0,8.94-7.273,16.214-16.213,16.214c-8.94,0-16.214-7.273-16.214-16.214C66.308,129.891,73.581,122.617,82.521,122.617z" fill="#02070a"/>
	<rect x="190.48" y="138.831" width="13.047" height="66.824" fill="#02070a"/>
	<path d="M338.484,60.637H172.448c-0.069,0-0.137,0.008-0.206,0.01c-0.069-0.002-0.136-0.01-0.206-0.01H6c-3.313,0-6,2.687-6,6   v211.211c0,3.313,2.687,6,6,6h166.037c0.069,0,0.137-0.008,0.206-0.01c0.069,0.002,0.136,0.01,0.206,0.01h166.037   c3.313,0,6-2.687,6-6V66.637C344.484,63.323,341.798,60.637,338.484,60.637z M166.037,271.848H12V72.637h154.037V271.848z    M332.484,271.848H178.448V72.637h154.037V271.848z" fill="#02070a"/>
	<path d="M261.963,166.999c15.557,0,28.214-12.656,28.214-28.214s-12.657-28.214-28.214-28.214s-28.213,12.656-28.213,28.214   S246.406,166.999,261.963,166.999z M261.963,122.571c8.94,0,16.214,7.273,16.214,16.214s-7.273,16.214-16.214,16.214   c-8.94,0-16.213-7.273-16.213-16.214S253.023,122.571,261.963,122.571z" fill="#02070a"/>
</g>
<g>
</g>
<g>
</g>
<g>
</g>
<g>
</g>
<g>
</g>
<g>
</g>
<g>
</g>
<g>
</g>
<g>
</g>
<g>
</g>
<g>
</g>
<g>
</g>
<g>
</g>
<g>
</g>
<g>
</g>
</svg>
