<?xml version="1.0" encoding="iso-8859-1"?>
<!-- Generator: Adobe Illustrator 18.0.0, SVG Export Plug-In . SVG Version: 6.00 Build 0)  -->
<!DOCTYPE svg PUBLIC "-//W3C//DTD SVG 1.1//EN" "http://www.w3.org/Graphics/SVG/1.1/DTD/svg11.dtd">
<svg xmlns="http://www.w3.org/2000/svg" xmlns:xlink="http://www.w3.org/1999/xlink" version="1.1" id="Capa_1" x="0px" y="0px" viewBox="0 0 245.28 245.28" style="enable-background:new 0 0 245.28 245.28;" xml:space="preserve" width="512px" height="512px">
<g>
	<path d="M122.64,55.389c-20.049,0-36.361,16.312-36.361,36.361v59.567c0,3.313,2.687,6,6,6h7.381v81.963c0,3.313,2.687,6,6,6h33.96   c3.313,0,6-2.687,6-6v-81.963h7.381c3.313,0,6-2.687,6-6V91.75C159.001,71.701,142.689,55.389,122.64,55.389z M147.001,145.317   h-7.381c-3.313,0-6,2.687-6,6v81.963h-21.96v-81.963c0-3.313-2.687-6-6-6h-7.381V91.75c0-13.433,10.928-24.361,24.361-24.361   s24.361,10.928,24.361,24.361V145.317z" fill="#006DF0"/>
	<path d="M122.64,48.485c13.368,0,24.243-10.875,24.243-24.243S136.008,0,122.64,0S98.397,10.875,98.397,24.243   S109.272,48.485,122.64,48.485z M122.64,12c6.75,0,12.243,5.492,12.243,12.243s-5.492,12.243-12.243,12.243   s-12.243-5.492-12.243-12.243S115.89,12,122.64,12z" fill="#006DF0"/>
</g>
<g>
</g>
<g>
</g>
<g>
</g>
<g>
</g>
<g>
</g>
<g>
</g>
<g>
</g>
<g>
</g>
<g>
</g>
<g>
</g>
<g>
</g>
<g>
</g>
<g>
</g>
<g>
</g>
<g>
</g>
</svg>
