<?xml version="1.0" encoding="iso-8859-1"?>
<!-- Generator: Adobe Illustrator 18.0.0, SVG Export Plug-In . SVG Version: 6.00 Build 0)  -->
<!DOCTYPE svg PUBLIC "-//W3C//DTD SVG 1.1//EN" "http://www.w3.org/Graphics/SVG/1.1/DTD/svg11.dtd">
<svg xmlns="http://www.w3.org/2000/svg" xmlns:xlink="http://www.w3.org/1999/xlink" version="1.1" id="Capa_1" x="0px" y="0px" viewBox="0 0 250.64 250.64" style="enable-background:new 0 0 250.64 250.64;" xml:space="preserve" width="512px" height="512px">
<g>
	<path d="M105.932,57.929h38.775c3.313,0,6-2.687,6-6V25.388C150.708,11.389,139.319,0,125.32,0S99.932,11.389,99.932,25.388v26.541   C99.932,55.242,102.619,57.929,105.932,57.929z M111.932,25.388c0-7.382,6.006-13.388,13.388-13.388s13.388,6.006,13.388,13.388   v20.541h-26.775V25.388z" fill="#D80027"/>
	<path d="M164.667,173.929l-5.223-77.284c-1.209-17.886-16.198-31.896-34.125-31.896s-32.916,14.01-34.125,31.896l-5.223,77.284   c-0.112,1.658,0.468,3.288,1.603,4.501s2.722,1.903,4.383,1.903h11.98l4.414,64.715c0.215,3.148,2.831,5.592,5.986,5.592h21.96   c3.155,0,5.771-2.444,5.986-5.592l4.414-64.715h11.98c1.662,0,3.249-0.689,4.383-1.903S164.779,175.587,164.667,173.929z    M130.696,238.64h-10.751l-3.977-58.307h18.705L130.696,238.64z M98.378,168.333l4.79-70.879   c0.785-11.611,10.515-20.706,22.152-20.706s21.367,9.095,22.152,20.706l4.79,70.879H98.378z" fill="#D80027"/>
</g>
<g>
</g>
<g>
</g>
<g>
</g>
<g>
</g>
<g>
</g>
<g>
</g>
<g>
</g>
<g>
</g>
<g>
</g>
<g>
</g>
<g>
</g>
<g>
</g>
<g>
</g>
<g>
</g>
<g>
</g>
</svg>
