<?xml version="1.0" encoding="iso-8859-1"?>
<!-- Generator: Adobe Illustrator 19.0.0, SVG Export Plug-In . SVG Version: 6.00 Build 0)  -->
<svg version="1.1" id="Layer_1" xmlns="http://www.w3.org/2000/svg" xmlns:xlink="http://www.w3.org/1999/xlink" x="0px" y="0px"
	 viewBox="0 0 512 512" style="enable-background:new 0 0 512 512;" xml:space="preserve">
<g>
	<g>
		<path d="M441.042,344.457c-2.446-15.442-4.892-30.881-7.336-46.322c-1.026-6.393-7.063-10.743-13.494-9.801
			c-101.115,14.853-227.308,14.853-328.423,0c-6.431-0.94-12.466,3.401-13.494,9.801c-2.446,15.442-4.89,30.881-7.336,46.322
			c-1.026,6.389,3.718,12.469,10.607,13.479c8.823,1.296,17.829,2.475,26.962,3.558L86.195,506.65L120.96,512l22.602-146.913
			c4.238,0.368,8.498,0.713,12.776,1.038v96.302h35.174v-94.142c42.608,2.035,86.364,2.035,128.972,0v94.142h35.174v-96.302
			c4.278-0.324,8.538-0.669,12.776-1.038L391.037,512l34.765-5.35l-22.331-145.156c9.132-1.083,18.138-2.263,26.962-3.558
			C437.324,356.926,442.068,350.853,441.042,344.457z"/>
	</g>
</g>
<g>
	<g>
		<path d="M335.951,1.19c-53.358-1.589-106.543-1.585-159.901,0c-44.426,1.577-77.773,35.687-73.881,74.344
			c5.57,59.828,11.119,119.306,12.684,178.885c46.65,6.552,94.093,9.88,141.147,9.88c47.061,0,94.51-3.33,141.147-9.88
			c1.565-59.578,7.113-119.057,12.684-178.885C413.722,36.884,380.375,2.772,335.951,1.19z M167.227,216.574
			c-1.127-49.523-3.297-99.487-5.271-141.83l35.137-1.638c1.984,42.549,4.165,92.774,5.3,142.668L167.227,216.574z M273.587,216.145
			h-35.174V73.389h35.174V216.145z M344.772,216.574l-35.165-0.801c1.136-49.917,3.317-100.131,5.3-142.667l35.137,1.637
			C348.069,117.073,345.9,167.024,344.772,216.574z"/>
	</g>
</g>
<g>
</g>
<g>
</g>
<g>
</g>
<g>
</g>
<g>
</g>
<g>
</g>
<g>
</g>
<g>
</g>
<g>
</g>
<g>
</g>
<g>
</g>
<g>
</g>
<g>
</g>
<g>
</g>
<g>
</g>
</svg>
