<?xml version="1.0" encoding="iso-8859-1"?>
<!-- Generator: Adobe Illustrator 16.0.0, SVG Export Plug-In . SVG Version: 6.00 Build 0)  -->
<!DOCTYPE svg PUBLIC "-//W3C//DTD SVG 1.1//EN" "http://www.w3.org/Graphics/SVG/1.1/DTD/svg11.dtd">
<svg version="1.1" id="Capa_1" xmlns="http://www.w3.org/2000/svg" xmlns:xlink="http://www.w3.org/1999/xlink" x="0px" y="0px"
	 width="289.385px" height="289.385px" viewBox="0 0 289.385 289.385" style="enable-background:new 0 0 289.385 289.385;"
	 xml:space="preserve">
<g>
	<g>
		<g>
			<path d="M151.046,89.61c-2.157-5.809-7.987-9.089-13.914-9.089c-2.959,0-3.231,0.075-4.993,0.075H84.207
				c-1.763,0-3.329,0-4.997,0c-6.768,0-11.754,3.206-13.91,9.014l-25.594,77.832c-2.438,6.566,0.856,13.888,7.358,16.351
				c6.503,2.463,13.751-0.864,16.189-7.431l6.805-18.32c0,0,0.485-1.848,0.485,6.217v108.025c0,9.445,7.581,17.102,16.934,17.102
				c9.352,0,16.933-7.656,16.933-17.102V201.71c0,0-0.081-0.624,0.573-0.624c1.59,0,4.77,0,6.359,0c0.628,0,0.593,0.624,0.593,0.624
				v70.573c0,9.445,7.58,17.102,16.933,17.102c9.353,0,16.933-7.656,16.933-17.102V164.258c0-8.195,0.711-5.611,0.711-5.611
				l6.579,17.715c2.438,6.566,9.688,9.895,16.189,7.431c6.502-2.463,9.798-9.784,7.359-16.351L151.046,89.61z"/>
			<ellipse cx="108.509" cy="35.983" rx="36.356" ry="35.983"/>
		</g>
		<g>
			<g>
				<g>
					<path d="M23.212,282.384c0,3.851-3.15,7.001-7,7.001h-3c-3.85,0-7-3.15-7-7.001V12.944c0-3.85,3.15-7,7-7h3c3.85,0,7,3.15,7,7
						V282.384z"/>
				</g>
			</g>
		</g>
		<g>
			<g>
				<g>
					<path d="M210.132,282.384c0,3.851-3.148,7.001-7,7.001h-3c-3.852,0-7-3.15-7-7.001V12.944c0-3.85,3.148-7,7-7h3
						c3.852,0,7,3.15,7,7V282.384z"/>
				</g>
			</g>
		</g>
		<g>
			<path d="M282.399,118.007c1.734,2.808,0.451,5.105-2.848,5.105h-42.334c-3.301,0-4.582-2.297-2.85-5.105l20.863-33.79
				c1.734-2.808,4.57-2.808,6.305,0L282.399,118.007z"/>
			<path d="M234.37,154.583c-1.732-2.808-0.451-5.104,2.85-5.104h42.332c3.301,0,4.582,2.297,2.848,5.104l-20.861,33.79
				c-1.732,2.809-4.57,2.809-6.305,0L234.37,154.583z"/>
		</g>
	</g>
</g>
<g>
</g>
<g>
</g>
<g>
</g>
<g>
</g>
<g>
</g>
<g>
</g>
<g>
</g>
<g>
</g>
<g>
</g>
<g>
</g>
<g>
</g>
<g>
</g>
<g>
</g>
<g>
</g>
<g>
</g>
</svg>
