<?xml version="1.0" encoding="utf-8"?>
<!-- Svg Vector Icons : http://www.onlinewebfonts.com/icon -->
<!DOCTYPE svg PUBLIC "-//W3C//DTD SVG 1.1//EN" "http://www.w3.org/Graphics/SVG/1.1/DTD/svg11.dtd">
<svg version="1.1" xmlns="http://www.w3.org/2000/svg" xmlns:xlink="http://www.w3.org/1999/xlink" x="0px" y="0px" viewBox="0 0 1000 1000" enable-background="new 0 0 1000 1000" xml:space="preserve">
<metadata> Svg Vector Icons : http://www.onlinewebfonts.com/icon </metadata>
<g><path d="M424.7,210.5c35.9,0,64.9-29.1,64.9-64.9c0-35.9-29.1-65-64.9-65c-35.8,0-64.9,29.1-64.9,65C359.8,181.4,388.8,210.5,424.7,210.5z M892.8,577H757.1c-37.4,0-38.8,57.5,0,57.5h69.5l-49.9,49.9c-1.8,1.3-3.6,2.8-5.3,4.5L641.2,819.6v-68.9c0.2-37.3-57.8-38.8-57.9,0v134.8c-0.1,20.2,13.4,33.8,33,33.8H752c37.4,0,38.8-57.5,0-57.5h-69.5l49.9-49.9c1.8-1.3,3.6-2.8,5.3-4.6l130.2-130.7v68.9c-0.2,37.3,57.8,38.7,57.9,0V610.7C925.8,590.6,912.3,577,892.8,577z M875,230.2H724c-31.2,0-71.4,12.8-95.3,36.8L489,406.6v-120c0-87.2-128.6-86.2-128.6,0v246h0.2L239.2,654.1c-11.4,11.4-12.8,12-35.3,12c-0.1,0-74.3,0-74.3,0C54.8,666.1,10,733.2,10,790.2c0,57,44.8,128.9,126.2,128.9c0,0,101,0,132.3,0c31.3,0,69-11.9,100.3-41.4l387.3-386.3c8.2-7.3,12.9-9.7,27.1-9.7c0,0,53.4,0,95.6,0c46.1,0,111.2-52.2,111.2-127.4C990,280,924.3,230.4,875,230.2z M868.2,416.7h-81.7c-34.5,0-49.9,4.9-69.8,24.8L326.4,831.8c-15.8,15.9-35.8,22.1-61.5,22.1H136.2c-33.1,0-62.2-28-62.2-64.7c0-36.7,27.8-57.4,56.5-57.4h88.3c25.7,0,42.7-7.3,57.3-22L673,312.8c16.3-16.3,32.4-18.4,60.1-18.4h135.9c33.1,0,55.3,37,55.3,59.1C924.4,375.5,908.5,416.7,868.2,416.7z"/></g>
</svg>