<?xml version="1.0" encoding="utf-8"?>
<!-- Svg Vector Icons : http://www.onlinewebfonts.com/icon -->
<!DOCTYPE svg PUBLIC "-//W3C//DTD SVG 1.1//EN" "http://www.w3.org/Graphics/SVG/1.1/DTD/svg11.dtd">
<svg version="1.1" xmlns="http://www.w3.org/2000/svg" xmlns:xlink="http://www.w3.org/1999/xlink" x="0px" y="0px" viewBox="0 0 1000 1000" enable-background="new 0 0 1000 1000" xml:space="preserve">
<metadata> Svg Vector Icons : http://www.onlinewebfonts.com/icon </metadata>
<g><path d="M507,357.2c25.3,0,45.8-19.2,45.8-42.9c0-23.7-20.5-42.8-45.8-42.8c-25.3,0-44.5,19.2-44.5,42.8C462.4,338,481.7,357.2,507,357.2z M140.7,973.6h98V26.4h-98V973.6z M483.7,173.4h32.6v-120l65.3,45.4V66.7L500,10l-81.6,56.7v32.1l65.3-45.4L483.7,173.4L483.7,173.4z M287.7,794h424.6V206H287.7V794z M320.3,238.7h359.3v522.6H320.3V238.7z M761.3,26.4v947.2h98V26.4H761.3z M566.4,371.4H428.3c0,0-20.1-2.4-26.4,14.3v129.3c0,0,0.5,13.2,14.5,13.2c0,0,15.6,0.1,15.6-14V436c0,0,8.6-17.8,15.1,0.9l0.1,277.2c0,0-0.5,14.2,14.5,14.2l15.6,0.2c0,0,14.8-0.2,14.8-14.4V585.5c0,0,0.6-7.3,8.4-7.3c0,0,6.9,2.6,6.9,7.6v129.6c0,0,0,13,15.1,13h15.2c0,0,15.1-0.9,15.1-13V435.8c0,0,5.4-16.5,15.1-0.2l0.5,79.2c0,0-3.5,13.7,15.5,13.7c14.3,0,13.9-13.1,13.9-13.1l0.2-129.7C597.8,385.7,590.3,371.4,566.4,371.4z M516.3,826.6h-32.6v120l-65.3-45.4v32.1L500,990l81.6-56.7v-32.1l-65.3,45.4V826.6L516.3,826.6z"/></g>
</svg>