<?xml version="1.0" encoding="utf-8"?>
<!-- Svg Vector Icons : http://www.onlinewebfonts.com/icon -->
<!DOCTYPE svg PUBLIC "-//W3C//DTD SVG 1.1//EN" "http://www.w3.org/Graphics/SVG/1.1/DTD/svg11.dtd">
<svg version="1.1" xmlns="http://www.w3.org/2000/svg" xmlns:xlink="http://www.w3.org/1999/xlink" x="0px" y="0px" viewBox="0 0 1000 1000" enable-background="new 0 0 1000 1000" xml:space="preserve">
<metadata> Svg Vector Icons : http://www.onlinewebfonts.com/icon </metadata>
<g><path d="M27.5,41.2h124.7v920.1H27.5V41.2z"/><path d="M850.3,41.2h122.2v920.1H850.3V41.2z"/><path d="M807.9,789.3c0,12.4-10.1,22.4-22.4,22.4h-556c-12.4,0-22.4-10.1-22.4-22.4V225.7c0-12.4,10-22.4,22.4-22.4h556c12.4,0,22.4,10.1,22.4,22.4V789.3z"/><path d="M421.5,78.6v47.3l67.3-47.3v93.5h42.4V78.6l67.3,46.8V74.8L510,10L421.5,78.6z"/><path d="M419,921.2l0.1-47.4l67.2,47.5l0.2-93.5l42.4,0.1l-0.2,93.5l67.4-46.6l-0.1,50.5L507.3,990L419,921.2z"/><path d="M508.2,203.2h1.1v608.5h-1.1V203.2z"/></g>
</svg>